<?xml version="1.0" encoding="UTF-8"?> <svg xmlns="http://www.w3.org/2000/svg" id="Layer_2" viewBox="0 0 501.94 233.16"><defs><style>.cls-1{fill:#fff;stroke-width:0px;}</style></defs><g id="Layer_1-2"><path id="Path_1" class="cls-1" d="M396.49,128.19l-9.38,18.75c-4.77-2.41-10.03-3.67-15.38-3.67-19.02.01-34.43,15.43-34.44,34.45v53.89h-20.99v-107.8h20.97v10.52c16.84-13.44,39.95-15.85,59.2-6.18l.03.03ZM501.94,123.81v107.8h-20.97v-10.52c-23.93,19.07-58.8,15.13-77.86-8.81-19.07-23.93-15.13-58.8,8.81-77.86,20.2-16.1,48.85-16.1,69.06,0v-10.54l20.97-.06ZM480.97,177.72c0-19.02-15.42-34.44-34.44-34.44s-34.44,15.42-34.44,34.44,15.4,34.43,34.42,34.44c19.02.01,34.45-15.39,34.47-34.42v-.03M299.65,177.72v10.52h-88.19c5.75,18.1,25.09,28.12,43.2,22.36,6.84-2.17,12.82-6.43,17.12-12.17l16.76,12.58c-18.38,24.42-53.08,29.31-77.49,10.93-24.42-18.38-29.31-53.08-10.93-77.49,18.38-24.42,53.08-29.31,77.49-10.93,13.91,10.47,22.08,26.86,22.06,44.27v-.07ZM277.1,167.18c-5.79-18.12-25.17-28.12-43.29-22.33-10.62,3.39-18.94,11.71-22.33,22.33h65.62ZM161.14,212.1c-19.02-.01-34.43-15.43-34.44-34.44v-34.41h41.64v-20.95h-41.69v-14.09h-20.97v71.11c.91,29.93,25.42,53.74,55.36,53.79,8.61,0,17.09-2.01,24.78-5.89l-9.4-18.75c-4.76,2.4-10.01,3.65-15.33,3.65l.05-.02ZM55.42,143.26c9.13-.02,17.88,3.6,24.33,10.06l14.84-14.82c-21.64-21.64-56.72-21.64-78.36,0-21.64,21.64-21.64,56.72,0,78.36,21.64,21.64,56.72,21.64,78.36,0l-14.83-14.81c-13.43,13.47-35.24,13.49-48.71.06-13.47-13.43-13.49-35.24-.06-48.71,6.47-6.49,15.27-10.13,24.44-10.12"></path><path id="Path_2" class="cls-1" d="M398.81,94.84h-20.96c-.44-22.65-19.15-40.65-41.79-40.21-22.03.42-39.79,18.18-40.21,40.21h-20.93c-.68-40.81-34.31-73.35-75.12-72.67-39.86.66-72.01,32.81-72.67,72.67h-20.99C106.13,42.46,148.6,0,200.98,0c37.71,0,71.83,22.34,86.92,56.9,20.93-27.05,59.82-32.01,86.87-11.09,15.17,11.74,24.05,29.85,24.03,49.03"></path></g></svg> 